PathFileType	4	(X/Y/Z)	Walking06.trc	
DataRate	CameraRate	NumFrames	NumMarkers	Units	OrigDataRate	OrigDataStartFrame	OrigNumFrames	
100.00	100.00	18	19	mm	100.00	384	98	
Frame#	Time	RPSI			LPSI			RASI			LASI			RTHI			RKNE			RHFB			RTUB			RSHN			RANK			RLCA			RSTL			RPCA			RCPG			RHEE			RP5M			RP1M			RD5M			RTOE			
		X1	Y1	Z1	X2	Y2	Z2	X3	Y3	Z3	X4	Y4	Z4	X5	Y5	Z5	X6	Y6	Z6	X7	Y7	Z7	X8	Y8	Z8	X9	Y9	Z9	X10	Y10	Z10	X11	Y11	Z11	X12	Y12	Z12	X13	Y13	Z13	X14	Y14	Z14	X15	Y15	Z15	X16	Y16	Z16	X17	Y17	Z17	X18	Y18	Z18	X19	Y19	Z19	

25	0.240	-466.95786	927.63751	-19.41489	-470.45374	925.69269	-113.66930	-276.06000	885.58734	51.89472	-276.31567	870.33801	-183.87239	-345.41077	575.39728	79.22292	-341.08130	433.30057	45.99778	-348.98740	391.64304	43.88564	-294.19641	381.80203	-15.35225	-313.11517	308.63916	-23.12623	-416.25034	64.20809	5.05165	-428.81165	40.50946	-1.24934	-420.68530	40.73354	-66.23189	-451.08066	65.52924	-38.26173	-477.71127	52.15045	-38.41337	-461.11151	24.35305	-42.03264	-337.65344	12.66908	31.07348	-315.82504	60.14816	-51.34743	-301.10675	13.95431	35.94685	-265.80829	35.25318	-6.57802 
26	0.250	-453.14716	928.96661	-19.99862	-456.83472	926.85114	-114.27798	-262.66397	886.14178	51.64388	-262.41440	872.36639	-183.29643	-338.10709	575.10175	78.12949	-337.49835	433.11115	45.33789	-345.99524	391.61954	43.09594	-291.49191	380.79648	-16.62776	-311.07266	308.26355	-23.88811	-415.95947	64.57075	4.77784	-428.54984	40.94776	-1.51613	-419.96774	41.01390	-66.55554	-450.79742	65.84342	-38.55464	-477.64371	52.79500	-38.70552	-460.52115	25.24993	-41.46910	-337.25601	12.00155	30.11371	-315.49728	59.90928	-51.61081	-301.41525	13.46517	35.76727	-265.62527	35.10632	-6.53693 
27	0.260	-439.29169	930.01984	-20.63432	-443.13492	927.73480	-114.96984	-249.25198	886.36725	51.53631	-248.54501	873.85449	-182.89873	-330.93362	575.04535	76.79913	-333.83142	433.03418	44.56003	-342.86298	391.70264	42.30706	-288.60306	380.10358	-17.58876	-308.91125	307.90027	-24.51495	-415.60263	64.99152	4.36898	-428.36658	41.45490	-1.83829	-418.73615	41.41550	-66.93150	-450.53595	66.44457	-38.90796	-477.59848	53.55131	-39.20846	-460.80597	24.89641	-42.24154	-337.13083	12.00077	29.79452	-314.89188	59.79737	-51.89052	-300.87112	14.10354	35.94281	-265.66415	34.71609	-6.42830 
28	0.270	-425.42453	930.77539	-21.33964	-429.41565	928.25031	-115.75024	-236.07289	886.09448	51.37754	-234.73586	874.88416	-182.78922	-324.09128	574.82678	75.50081	-330.17923	433.06210	43.73784	-339.80908	391.78922	41.51665	-285.55478	379.41870	-18.19658	-306.59784	307.49969	-24.93563	-415.14960	65.48912	3.89069	-428.26675	42.02787	-2.22148	-418.48236	42.01554	-67.41600	-450.56903	67.30104	-39.25096	-477.30368	54.30188	-40.00216	-460.64716	25.20071	-42.82154	-337.10242	12.21774	29.57774	-314.46643	59.76600	-52.06963	-300.73105	14.28434	35.95812	-265.81467	34.12888	-6.55800 
29	0.280	-411.61249	931.14557	-22.16943	-415.66443	928.33691	-116.49085	-223.10883	885.44037	51.16209	-220.92404	875.51685	-183.01030	-317.15070	574.56360	74.31177	-326.74359	433.24887	42.77385	-336.86273	391.92767	40.74888	-282.55164	378.68274	-18.59636	-304.13486	307.09128	-25.17488	-414.41129	65.74440	3.40942	-428.25543	42.74018	-2.83638	-418.95575	42.30348	-68.36224	-450.38120	67.99302	-39.70643	-476.82935	55.22556	-40.72826	-460.42294	25.86033	-43.55276	-337.14658	12.59156	29.38106	-313.56082	59.50794	-52.61712	-300.72540	14.34282	35.88234	-265.51553	33.67671	-6.83853 
30	0.290	-397.80396	931.03662	-23.01008	-401.86899	928.01471	-117.16681	-209.48431	884.68176	51.18941	-206.97943	875.66351	-183.45335	-310.10510	574.31073	73.14840	-323.16013	433.42896	41.90649	-334.01294	392.14026	40.04611	-279.61856	377.86359	-19.16696	-301.58511	306.66989	-25.42379	-413.39383	65.63597	2.89784	-427.99667	43.48298	-3.82776	-418.59079	42.87459	-69.19888	-449.77032	68.72430	-40.37986	-476.31061	56.22412	-41.76666	-460.23889	26.84370	-44.56381	-337.25296	13.08243	29.23342	-312.61908	59.14893	-53.32570	-300.78464	14.38161	35.80669	-265.14218	33.43673	-6.95909 
31	0.300	-383.98227	930.44867	-23.83325	-388.14529	927.29285	-117.76469	-196.00700	883.34680	51.03251	-192.89735	875.31104	-184.15077	-302.84238	574.10474	72.09673	-319.62503	433.59451	41.19788	-330.93219	392.45908	39.37976	-276.21417	377.21573	-19.50746	-298.85641	306.22424	-25.82679	-413.12097	66.52567	2.15520	-427.78412	44.42159	-4.58891	-417.93256	43.55670	-70.00182	-449.17841	69.70597	-41.37511	-475.85757	57.39427	-43.00019	-460.02118	28.12601	-45.80317	-337.30267	13.44940	28.95676	-312.92917	59.22974	-53.16028	-300.81284	14.44049	35.72100	-264.74036	33.28177	-7.03821 
32	0.310	-370.11008	929.25439	-24.71020	-374.42108	926.14221	-118.37928	-182.03871	881.76813	50.69200	-178.70715	874.59442	-185.03979	-295.16098	573.76776	71.21940	-315.78601	433.81100	40.62187	-327.52652	392.80020	38.74415	-272.57483	376.45160	-19.86543	-295.91583	305.89371	-26.34653	-413.06750	67.76973	1.34083	-427.49136	45.47245	-5.25835	-417.35159	44.34026	-70.74344	-448.58740	70.99583	-42.50231	-475.38620	58.68196	-44.20520	-459.69586	29.18279	-46.69341	-337.34976	13.83474	28.57836	-312.50272	59.28879	-53.23093	-300.88028	14.50567	35.59010	-264.40756	33.11723	-7.14336 
33	0.320	-356.24423	927.50299	-25.71152	-360.67294	924.58929	-119.09554	-167.94508	879.90393	50.21901	-164.13403	873.48297	-186.12498	-287.04916	573.26532	70.40022	-311.45151	433.92053	40.06869	-323.77463	393.11566	38.10363	-268.50491	375.65591	-20.25218	-292.67960	305.67883	-26.94849	-412.14352	68.13716	0.50640	-427.12213	46.48355	-6.42755	-416.69867	45.54014	-71.64790	-447.82733	72.54445	-43.71648	-474.81024	60.08484	-45.33946	-459.13107	30.32976	-47.96785	-337.52274	14.26843	28.01188	-311.97400	59.42039	-53.65344	-300.99683	14.61794	35.37353	-264.08908	32.96946	-7.22933 
34	0.330	-342.36243	925.31238	-26.90552	-346.48834	922.44458	-119.98138	-154.89497	877.41071	50.23770	-149.27965	872.04327	-187.25047	-278.57202	572.75104	69.69778	-306.44733	434.02658	39.53452	-319.57861	393.42996	37.16138	-263.93021	374.97717	-20.66608	-289.00409	305.50592	-27.37688	-411.49182	69.11120	-0.84924	-426.84674	47.62629	-8.10699	-415.72330	46.98457	-72.87954	-446.92392	73.99520	-45.03967	-474.16757	61.61712	-46.99691	-458.30753	31.58746	-49.96663	-337.64438	14.86313	27.21198	-311.16415	59.64891	-54.04438	-301.23282	14.80196	35.02228	-263.75781	32.82481	-7.34428 
35	0.340	-328.37592	922.73651	-28.31169	-331.32410	919.63678	-121.10078	-141.26447	874.95117	50.19611	-134.35065	870.24060	-187.97966	-270.08224	572.26563	69.05803	-300.65317	434.14545	38.87490	-314.61847	393.76431	36.26801	-259.12244	374.27740	-20.96995	-284.76154	305.24826	-27.82404	-410.87811	70.55968	-2.45651	-426.50031	49.14091	-9.78078	-414.70074	48.42225	-74.45553	-445.87482	75.68384	-47.00072	-473.32880	63.55962	-49.62798	-457.74878	33.33326	-51.92917	-337.62640	15.39475	26.22001	-310.24100	59.84941	-54.59713	-301.57205	15.07387	34.61148	-263.49289	32.69571	-7.52025 
36	0.350	-314.35861	919.96094	-29.92897	-316.41025	916.56512	-122.44887	-127.39080	872.41888	50.20989	-119.04246	868.10254	-188.39624	-261.52948	571.88263	68.52116	-293.97119	434.20279	37.89035	-308.98752	393.93216	35.25901	-253.80788	373.74649	-21.25901	-279.99829	304.96106	-28.50617	-410.16006	72.22122	-3.98709	-426.13019	50.87028	-11.37282	-413.65533	50.13984	-76.10141	-444.89264	77.60760	-49.00757	-472.23062	66.32491	-51.73054	-457.21045	35.58290	-53.86794	-337.90073	15.66431	25.10800	-309.33136	60.10761	-55.09676	-301.99368	15.33261	34.22510	-263.34976	32.55430	-7.78197 
37	0.360	-300.15857	917.10724	-31.66002	-301.41559	913.20221	-123.99806	-113.36719	869.87799	50.26451	-103.30532	865.65417	-188.69662	-252.61848	571.48492	68.00520	-286.66724	434.08755	36.91085	-302.52426	394.01508	34.24883	-247.66641	372.76111	-22.11150	-274.75296	304.67578	-29.40951	-409.41263	74.07608	-5.35954	-425.65042	52.87795	-12.94643	-412.54901	52.10174	-77.68003	-443.64627	79.98693	-50.82640	-471.28027	68.89368	-53.38445	-456.73901	38.14914	-55.94690	-338.14078	16.02246	24.10454	-308.44724	60.39515	-55.59357	-302.46576	15.58312	33.81860	-263.18121	32.45817	-7.97737 
38	0.370	-285.88034	914.41406	-33.70175	-286.29660	909.74707	-125.78845	-99.30912	867.33466	50.35211	-87.49797	863.04810	-188.68094	-243.30728	570.97894	67.49049	-278.75128	433.74908	36.01688	-295.25607	393.95834	33.31821	-240.82477	371.48050	-22.87340	-269.13272	304.17514	-30.32414	-408.50247	76.12096	-6.43344	-425.07083	55.10018	-14.15519	-411.55179	54.17596	-78.91228	-442.13675	82.80876	-52.05323	-470.18668	71.84792	-55.06131	-456.10324	40.93497	-57.44926	-338.30917	16.44930	23.21312	-307.42419	60.77962	-56.00400	-302.94269	15.81579	33.37711	-262.97922	32.38713	-8.11237 
39	0.380	-271.43958	911.84265	-35.86994	-271.13159	906.46289	-127.91637	-85.22604	864.67804	50.48643	-71.86027	860.06342	-188.39334	-233.73947	570.28387	66.91589	-270.23605	433.20721	35.21032	-287.51718	393.78537	32.42560	-233.36145	370.12274	-23.28717	-263.14151	303.33844	-30.98237	-407.51764	78.35332	-7.21909	-424.42197	57.62075	-14.99708	-410.57596	56.49923	-79.69898	-440.76373	85.42204	-52.68759	-469.09152	75.26259	-56.09849	-455.60138	43.96586	-58.27134	-338.48340	16.88253	22.44010	-306.52786	61.19127	-56.25704	-303.32135	15.97663	32.97046	-262.80661	32.32961	-8.24959 
40	0.390	-256.97067	909.56433	-38.15188	-255.76669	903.43091	-130.36923	-71.08400	862.01080	50.70383	-55.91838	857.00726	-188.25262	-223.56927	569.41125	66.26908	-261.35229	432.57455	34.58648	-279.50778	393.55823	31.80394	-225.48190	368.76718	-23.32902	-256.71063	302.39877	-31.19280	-406.38379	80.82533	-7.63891	-424.63080	60.59868	-15.56715	-409.49442	59.15280	-80.09821	-439.26047	88.35070	-53.11527	-467.99335	78.93099	-56.43433	-454.99658	47.51495	-58.80254	-338.56494	17.43301	21.87938	-305.67505	61.79825	-56.39445	-303.52274	16.07408	32.65776	-262.62762	32.27774	-8.34955 
41	0.400	-242.40639	907.60931	-40.56076	-240.26181	900.88220	-133.08026	-56.67069	859.36127	50.88713	-39.91775	853.98340	-188.16315	-212.76302	568.36279	65.64073	-252.00555	432.05707	34.27708	-271.05383	393.37598	31.39188	-217.22380	367.22488	-22.97278	-249.77336	301.35397	-30.86509	-405.13165	83.62038	-7.62188	-424.76389	63.75031	-15.87222	-408.63367	61.87908	-79.88159	-437.48785	91.90788	-53.25729	-466.50995	83.29259	-56.30911	-454.21146	51.57710	-59.01977	-338.44131	18.20942	21.60801	-304.73956	62.55184	-56.37511	-303.62622	16.24195	32.45264	-262.56491	32.44110	-8.12627 
42	0.410	-227.54694	905.79797	-43.04412	-224.58676	898.79059	-135.89386	-42.27896	856.60736	50.88871	-23.80617	851.06683	-188.17000	-201.23703	567.19873	65.01985	-242.16615	431.56082	34.13404	-262.01923	393.24774	31.17056	-208.56039	365.51917	-22.25165	-242.34473	300.10468	-30.29149	-403.51288	86.91697	-7.18884	-421.70917	66.95975	-15.42138	-408.03000	64.30627	-79.02075	-435.69894	95.90472	-52.85387	-464.75418	88.63972	-55.64775	-453.42737	56.11914	-58.62148	-338.23349	19.15587	21.41832	-303.73923	63.26564	-56.14774	-303.85663	16.29006	32.20995	-262.82690	32.65446	-7.55651 
